<svg width="64" height="22" viewBox="0 0 64 22" fill="none" xmlns="http://www.w3.org/2000/svg">
<path d="M15.5231 0H0V15.8421H5.12476V21.4985H8.80352L21.4347 10.7599V4.9759L15.5231 0.0212642V0ZM16.2248 10.2495H11.4616L5.23108 15.5656L5.18855 5.12475H16.2248V10.2495Z" fill="white"/>
<path d="M28.3813 16.6203V5.36064H32.9978C33.8235 5.36064 34.5687 5.50004 35.2336 5.77885C35.9092 6.04694 36.4882 6.43298 36.9708 6.93699C37.4641 7.43026 37.8394 8.02006 38.0968 8.70636C38.3541 9.39266 38.4828 10.154 38.4828 10.9905C38.4828 11.8162 38.3541 12.5775 38.0968 13.2746C37.8394 13.9609 37.4694 14.556 36.9869 15.06C36.5043 15.5533 35.9253 15.9393 35.2497 16.2181C34.5741 16.4862 33.8235 16.6203 32.9978 16.6203H28.3813ZM30.7941 14.867L30.5367 14.4488H32.9173C33.3999 14.4488 33.8342 14.3684 34.2202 14.2075C34.6063 14.0359 34.9333 13.8054 35.2014 13.5158C35.4802 13.2156 35.6893 12.851 35.8288 12.422C35.9682 11.9931 36.0379 11.5159 36.0379 10.9905C36.0379 10.465 35.9682 9.99317 35.8288 9.57496C35.6893 9.14602 35.4802 8.78142 35.2014 8.48116C34.9333 8.18091 34.6063 7.95035 34.2202 7.7895C33.8342 7.61793 33.3999 7.53214 32.9173 7.53214H30.4885L30.7941 7.14609V14.867Z" fill="white"/>
<path d="M40.3595 16.6203V4.71723H42.6436V16.6203H40.3595Z" fill="white"/>
<path d="M47.9894 16.7811C47.2817 16.7811 46.6436 16.5881 46.0753 16.2021C45.5069 15.816 45.0565 15.2906 44.7241 14.6257C44.3917 13.9609 44.2255 13.1995 44.2255 12.3416C44.2255 11.4837 44.3917 10.7277 44.7241 10.0736C45.0673 9.40875 45.5284 8.88866 46.1074 8.51334C46.6865 8.12729 47.346 7.93427 48.0859 7.93427C48.5041 7.93427 48.8848 7.99861 49.228 8.12729C49.5819 8.24525 49.8875 8.41146 50.1448 8.62593C50.4129 8.8404 50.6381 9.08704 50.8204 9.36585C51.0027 9.64466 51.1314 9.94492 51.2065 10.2666L50.7239 10.1862V8.11121H52.9919V16.6203H50.6917V14.5775L51.2065 14.5292C51.1207 14.8295 50.9813 15.1136 50.7882 15.3817C50.5952 15.6498 50.3539 15.8911 50.0644 16.1056C49.7856 16.3093 49.4693 16.4755 49.1154 16.6042C48.7615 16.7222 48.3862 16.7811 47.9894 16.7811ZM48.6167 14.8027C49.0457 14.8027 49.421 14.7008 49.7427 14.497C50.0644 14.2933 50.311 14.0091 50.4826 13.6445C50.6649 13.2692 50.7561 12.8349 50.7561 12.3416C50.7561 11.8591 50.6649 11.4355 50.4826 11.0709C50.311 10.7063 50.0644 10.4221 49.7427 10.2184C49.421 10.0039 49.0457 9.89666 48.6167 9.89666C48.1985 9.89666 47.8286 10.0039 47.5069 10.2184C47.1959 10.4221 46.9492 10.7063 46.7669 11.0709C46.5846 11.4355 46.4935 11.8591 46.4935 12.3416C46.4935 12.8349 46.5846 13.2692 46.7669 13.6445C46.9492 14.0091 47.1959 14.2933 47.5069 14.497C47.8286 14.7008 48.1985 14.8027 48.6167 14.8027Z" fill="white"/>
<path d="M60.1879 16.7811C59.8126 16.7811 59.448 16.7275 59.0941 16.6203C58.7402 16.513 58.4185 16.3683 58.129 16.186C57.8395 15.993 57.5982 15.7785 57.4052 15.5426C57.2121 15.2959 57.0888 15.0439 57.0352 14.7866L57.5499 14.5935L57.4373 16.5881H55.2819V4.71723H57.566V10.1058L57.1317 9.92883C57.1961 9.67147 57.3194 9.42483 57.5017 9.18891C57.684 8.94227 57.9145 8.72781 58.1933 8.54551C58.4722 8.35248 58.7778 8.20235 59.1102 8.09512C59.4426 7.98789 59.7858 7.93427 60.1397 7.93427C60.8796 7.93427 61.5391 8.12729 62.1181 8.51334C62.6972 8.88866 63.1529 9.40875 63.4854 10.0736C63.8285 10.7385 64.0001 11.4998 64.0001 12.3577C64.0001 13.2156 63.8339 13.9769 63.5015 14.6418C63.169 15.3067 62.7133 15.8321 62.1342 16.2181C61.5659 16.5935 60.9171 16.7811 60.1879 16.7811ZM59.641 14.8348C60.0699 14.8348 60.4399 14.7329 60.7509 14.5292C61.0726 14.3147 61.3246 14.0252 61.5069 13.6606C61.6892 13.2853 61.7803 12.851 61.7803 12.3577C61.7803 11.8751 61.6892 11.4462 61.5069 11.0709C61.3353 10.6956 61.0887 10.406 60.767 10.2023C60.4453 9.99854 60.0699 9.89666 59.641 9.89666C59.2121 9.89666 58.8368 9.99854 58.515 10.2023C58.1933 10.406 57.9413 10.6956 57.759 11.0709C57.5767 11.4462 57.4856 11.8751 57.4856 12.3577C57.4856 12.851 57.5767 13.2853 57.759 13.6606C57.9413 14.0252 58.1933 14.3147 58.515 14.5292C58.8368 14.7329 59.2121 14.8348 59.641 14.8348Z" fill="white"/>
</svg>
